# xmcd
#
# Track frame offsets:
#	150
#	19865
#	33909
#	44822
#	62972
#	82081
#	98330
#	116075
#	128510
#	140674
#	152485
#	172941
#	190024
#	203237
#	220144
#	234655
#	250523
#	264922
#	276257
#	294004
#	317258
#	335686
#	358779
#
# Disc length: 4789 seconds
#
# Revision: 1
# Processed by: cddbd v1.5.2PL0 Copyright (c) Steve Scherf et al.
# Submitted via: audiograbber 1.83.01
#
DISCID=4712b317
DTITLE=ALAN JACKSON - TOP TUNES ARITIST VOLUME 16
DYEAR=2001
DGENRE=Country
TTITLE0=BETWEEN THE DEVIL AND ME
TTITLE1=CHASING THAT NEON RAINBOW
TTITLE2=CHATTAHOOCHIE
TTITLE3=DRIVE (FOR DADDY GENE0
TTITLE4=GONE COUNTRY
TTITLE5=HERE IN THE REAL WORLD
TTITLE6=ILL GO ON LOVING YOU
TTITLE7=IT MUST BE LOVE
TTITLE8=ITS ALRIGHT TO BE A REDNECK
TTITLE9=LITTLE BITTY
TTITLE10=LITTLE MAN
TTITLE11=LIVIN ON LOVE
TTITLE12=LOVES GOT A HOLD ON YOU
TTITLE13=MIDNIGHT IN MONTGOMERY
TTITLE14=POP A TOP
TTITLE15=RIGHT ON THE MONEY
TTITLE16=SUMMERTIME BLUES
TTITLE17=TALL TALL TREES
TTITLE18=WHERE I COME FROM
TTITLE19=WHERE WERE YOU
TTITLE20=WHO'S CHEATIN WHO
TTITLE21=WWW.MEMORY
TTITLE22=Data Track
EXTD=
EXTT0=
EXTT1=
EXTT2=
EXTT3=
EXTT4=
EXTT5=
EXTT6=
EXTT7=
EXTT8=
EXTT9=
EXTT10=
EXTT11=
EXTT12=
EXTT13=
EXTT14=
EXTT15=
EXTT16=
EXTT17=
EXTT18=
EXTT19=
EXTT20=
EXTT21=
EXTT22=
PLAYORDER=
